# AST/ASF file generated using VICON BodyLanguage
# -----------------------------------------------
:version 1.10
:name VICON
:units
  mass 1.0
  length 0.45
  angle deg
:documentation
   .ast/.asf automatically generated from VICON data using
   VICON BodyBuilder and BodyLanguage model FoxedUp or BRILLIANT.MOD
:root
   order TX TY TZ RX RY RZ
   axis XYZ
   position 0 0 0  
   orientation 0 -0 0 
:bonedata
  begin
     id 1 
     name lhipjoint
     direction 0.515797 -0.759363 0.396637 
     length 2.47888 
     axis 0 -0 0  XYZ
  end
  begin
     id 2 
     name lfemur
     direction 0.34202 -0.939693 0  
     length 6.81885  
     axis 0 -0 20  XYZ
    dof rx ry rz
    limits (-160.0 20.0)
           (-70.0 70.0)
           (-60.0 70.0)
  end
  begin
     id 3 
     name ltibia
     direction 0.342037 -0.939687 0   
     length 7.89258   
     axis 0 -0 20   XYZ
    dof rx
    limits (-10.0 170.0)
  end
  begin
     id 4 
     name lfoot
     direction 0.173497 -0.476678 0.861787   
     length 2.51543   
     axis -90 -1.13533e-015 20   XYZ
    dof rx rz
    limits (-45.0 90.0)
           (-70.0 20.0)
  end
  begin
     id 5 
     name ltoes
     direction 1.53564e-011 -4.21897e-011 1   
     length 1.21388   
     axis -90 -1.13533e-015 20   XYZ
    dof rx
    limits (-90.0 20.0)
  end
  begin
     id 6 
     name rhipjoint
     direction -0.489454 -0.772941 0.403729   
     length 2.43534  
     axis 0 -0 0  XYZ 
  end
  begin
     id 7 
     name rfemur
     direction -0.34202 -0.939693 0   
     length 7.10357   
     axis 0 -0 -20   XYZ
    dof rx ry rz
    limits (-160.0 20.0)
           (-70.0 70.0)
           (-70.0 60.0)
  end
  begin
     id 8 
     name rtibia
     direction -0.34202 -0.939693 0   
     length 9.16127   
     axis 0 -0 -20   XYZ
    dof rx
    limits (-10.0 170.0)
 end
 begin
     id 9 
     name rfoot
     direction -0.270974 -0.748671 0.605033   
     length 1.74894  
     axis -90 1.13533e-015 -20   XYZ
    dof rx rz
    limits (-45.0 90.0)
           (-20.0 70.0)
  end
  begin
     id 10 
     name rtoes
     direction -1.53557e-011 -4.21759e-011 1   
     length 0.787585   
     axis -90 1.13533e-015 -20   XYZ
    dof rx
    limits (-90.0 20.0)
  end
  begin
     id 11 
     name lowerback
     direction -0.0140249 0.999561 0.0260968   
     length 2.16963   
     axis 0 -0 0   XYZ
    dof rx ry rz
    limits (-20.0 45.0)
           (-30.0 30.0)
           (-30.0 30.0)
  end
  begin
     id 12 
     name upperback
     direction 0.00860018 0.999959 -0.002711   
     length 2.1726   
     axis 0 -0 0   XYZ
    dof rx ry rz
    limits (-20.0 45.0)
           (-30.0 30.0)
           (-30.0 30.0)
  end
  begin
     id 13 
     name thorax
     direction 0.015211 0.999782 -0.0143191   
     length 2.17061   
     axis 0 -0 0   XYZ
    dof rx ry rz
    limits (-20.0 45.0)
           (-30.0 30.0)
           (-30.0 30.0)
  end
  begin
     id 14 
     name lowerneck
     direction -0.0140143 0.999447 0.030145   
     length 2.26749   
     axis 0 -0 0   XYZ
    dof rx ry rz
    limits (-20.0 45.0)
           (-30.0 30.0)
           (-30.0 30.0)
  end
  begin
     id 15 
     name upperneck
     direction 0.118062 0.961438 -0.248392   
     length 2.22728   
     axis 0 -0 0   XYZ
    dof rx ry rz
    limits (-20.0 45.0)
           (-30.0 30.0)
           (-30.0 30.0)
  end
  begin
     id 16
     name head
     direction 0.0431885 0.9954 -0.085514  
     length 2.28786  
     axis 0 -0 0   XYZ
    dof rx ry rz
    limits (-20.0 45.0)
           (-30.0 30.0)
           (-30.0 30.0)
  end
  begin
     id 17 
     name lclavicle
     direction 0.912126 0.409548 0.0172323  
     length 4.31571  
     axis 0 -0 0   XYZ
    dof ry rz
    limits (-20.0 10.0)
           (0.0 20.0)
  end
  begin
     id 18 
     name lhumerus
     direction 1 -4.48977e-011 1.93091e-027   
     length 5.13658   
     axis 180 -30 -90   XYZ
    dof rx ry rz
    limits (-60.0 90.0)
           (-90.0 90.0)
           (-90.0 90.0)
  end
  begin
     id 19
     name lradius
     direction 1 -4.48916e-011 6.84018e-027   
     length 3.22473   
     axis 180 -30 -90   XYZ
    dof rx
    limits (-10.0 170.0)
  end
  begin
     id 20
     name lwrist
     direction 1 -4.48987e-011 7.01981e-027   
     length 1.61236   
     axis -4.37994e-015 90 90   XYZ
    dof ry
    limits (-180.0 0.0)
 end
  begin
     id 21 
     name lhand
     direction 1 -4.49037e-011 1.40335e-026   
     length 0.936406   
     axis -8.96029e-015 90 90   XYZ
    dof rx rz
    limits (-90.0 90.0)
           (-45.0 45.0)
  end
  begin
     id 22 
     name lfingers
     direction 1 -4.48886e-011 2.8104e-026   
     length 0.754955   
     axis -1.79203e-014 90 90   XYZ
    dof rx
    limits (0.0 90.0)
  end
  begin
     id 23
     name lthumb
     direction 0.707107 -6.34937e-011 0.707107   
     length 1.08397   
     axis -90 45 -4.48555e-014   XYZ
    dof rx rz
    limits (-45.0 45.0)
           (-45.0 45.0)
  end
  begin
     id 24 
     name rclavicle
     direction -0.947962 0.317997 0.0156638   
     length 4.86918  
     axis 0 -0 0   XYZ 
    dof ry rz
    limits (-10.0 20.0)
           (-20.0 0.0)
  end
  begin
     id 25 
     name rhumerus
     direction -1 -4.48951e-011 2.80534e-018  
     length 5.60911   
     axis 180 30 90   XYZ
    dof rx ry rz
    limits (-90.0 60.0)
           (-90.0 90.0)
           (-90.0 90.0)
  end
  begin
     id 26 
     name rradius
     direction -1 -4.4898e-011 2.11315e-027   
     length 3.38704   
     axis 180 30 90   XYZ
    dof rx
    limits (-10.0 170.0)
  end
  begin
     id 27 
     name rwrist
     direction -1 -4.48933e-011 7.02314e-027   
     length 1.69352   
     axis -4.37994e-015 -90 -90   XYZ
    dof ry
    limits (-180.0 0.0)
  end
  begin
     id 28
     name rhand
     direction -1 -4.48937e-011 1.40458e-026   
     length 0.755878   
     axis -8.96029e-015 -90 -90   XYZ
    dof rx rz
    limits (-90.0 90.0)
           (-45.0 45.0)
  end
  begin
     id 29
     name rfingers
     direction -1 -4.4901e-011 2.80737e-026   
     length 0.609409   
     axis -1.79203e-014 -90 -90   XYZ
    dof rx
    limits (0.0 90.0)
  end
  begin
     id 30
     name rthumb
     direction -0.707107 -6.34968e-011 0.707107   
     length 0.874992   
     axis -90 -45 4.48555e-014   XYZ
    dof rx rz
    limits (-45.0 45.0)
           (-45.0 45.0)
  end
:hierarchy
  begin
    root lhipjoint rhipjoint lowerback
    lhipjoint lfemur
    lfemur ltibia
    ltibia lfoot
    lfoot ltoes
    rhipjoint rfemur
    rfemur rtibia
    rtibia rfoot
    rfoot rtoes
    lowerback upperback
    upperback thorax
    thorax lowerneck lclavicle rclavicle
    lowerneck upperneck
    upperneck head
    lclavicle lhumerus
    lhumerus lradius
    lradius lwrist
    lwrist lhand lthumb
    lhand lfingers
    rclavicle rhumerus
    rhumerus rradius
    rradius rwrist
    rwrist rhand rthumb
    rhand rfingers
  end

#!OML:ASF C:\ViconDB\ViconDB\414\Spring2016\041811\Spring2016.ASF
:FULLY-SPECIFIED
:DEGREES
76
root 12.0906 18.2309 5.84605 -177.002 -7.05152 -177.6
lowerback -5.58619 0.910487 -1.11829
upperback 1.08783 1.25852 0.792997
thorax 4.21598 0.585663 1.56206
lowerneck -13.0376 3.41259 -4.22003
upperneck 25.0719 1.94044 10.1648
head 9.90852 1.18306 4.46968
rclavicle -1.19271e-015 5.56597e-015
rhumerus -41.0179 -18.712 -84.2532
rradius 31.4051
rwrist 51.2228
rhand -34.8915 -11.7859
rfingers 7.12502
rthumb -8.04002 -41.613
lclavicle -1.19271e-015 5.56597e-015
lhumerus -37.2027 -1.65924 90.534
lradius 24.9612
lwrist -36.2414
lhand -25.1886 13.0549
lfingers 7.12502
lthumb 1.3294 43.0305
rfemur 170.414 63.5712 -163.819
rtibia 27.7471
rfoot -69.397 -40.1523
rtoes -30.3799
lfemur -9.30244 -7.5535 -17.1489
ltibia 25.5064
lfoot -22.3062 7.123
ltoes -11.999
77
root 12.0828 18.2297 5.83978 -176.969 -7.05965 -177.58
lowerback -5.61554 0.908766 -1.05288
upperback 1.08388 1.25257 0.774222
thorax 4.23042 0.58445 1.50595
lowerneck -13.0422 3.40825 -4.13412
upperneck 25.0761 1.94102 10.0643
head 9.91445 1.181 4.41934
rclavicle -3.20168e-014 1.39149e-015
rhumerus -41.0254 -18.7682 -84.2516
rradius 31.3751
rwrist 51.3351
rhand -34.9804 -11.8439
rfingers 7.12502
rthumb -8.12583 -41.6677
lclavicle -3.20168e-014 1.39149e-015
lhumerus -37.1787 -1.57935 90.4734
lradius 24.9181
lwrist -36.3351
lhand -25.2273 12.9736
lfingers 7.12502
lthumb 1.292 42.9494
rfemur 170.453 63.5851 -163.796
rtibia 27.7344
rfoot -69.404 -40.138
rtoes -30.2457
lfemur -9.33366 -7.50464 -17.1431
ltibia 25.5211
lfoot -22.3213 7.06536
ltoes -12.0605
78
root 12.0749 18.2297 5.83237 -176.943 -7.05126 -177.581
lowerback -5.65368 0.895676 -1.1011
upperback 1.08187 1.23478 0.854275
thorax 4.24779 0.572928 1.61498
lowerneck -13.0087 3.39834 -4.44739
upperneck 25.0295 1.96284 10.248
head 9.87925 1.18266 4.53877
rclavicle -1.91082e-014 -2.38542e-015
rhumerus -40.998 -18.4744 -84.232
rradius 31.4
rwrist 51.1351
rhand -35.0079 -11.9566
rfingers 7.12502
rthumb -8.15239 -41.7793
lclavicle -1.91082e-014 -2.38542e-015
lhumerus -37.1638 -1.35371 90.5551
lradius 24.8757
lwrist -36.4063
lhand -25.2424 12.9375
lfingers 7.12502
lthumb 1.2775 42.9135
rfemur 170.461 63.5848 -163.825
rtibia 27.7137
rfoot -69.3867 -40.1448
rtoes -30.1358
lfemur -9.34447 -7.5132 -17.1669
ltibia 25.5477
lfoot -22.3673 7.05301
ltoes -12.0274
79
root 12.0681 18.23 5.8238 -176.914 -7.05964 -177.556
lowerback -5.70767 0.887492 -1.08145
upperback 1.09727 1.22481 0.816757
thorax 4.29586 0.568546 1.56558
lowerneck -13.0715 3.41963 -4.28695
upperneck 25.038 1.96527 10.2081
head 9.89866 1.19621 4.49936
rclavicle 1.30701e-014 -4.17448e-015
rhumerus -40.9765 -18.6366 -84.2511
rradius 31.3739
rwrist 51.25
rhand -34.9479 -11.8934
rfingers 7.12502
rthumb -8.09451 -41.7183
lclavicle 1.30701e-014 -4.17448e-015
lhumerus -37.141 -1.50682 90.4885
lradius 24.9021
lwrist -36.52
lhand -25.1189 12.9459
lfingers 7.12502
lthumb 1.3967 42.9211
rfemur 170.465 63.6329 -163.824
rtibia 27.7026
rfoot -69.4304 -40.1633
rtoes -30.2889
lfemur -9.36147 -7.44397 -17.1557
ltibia 25.5691
lfoot -22.3847 6.96552
ltoes -11.9783
80
root 12.0614 18.2296 5.81605 -176.895 -7.05994 -177.557
lowerback -5.70169 0.877553 -1.10955
upperback 1.08426 1.21354 0.817519
thorax 4.27877 0.562488 1.5808
lowerneck -13.157 3.43978 -4.22585
upperneck 25.1382 1.97491 10.1808
head 9.9521 1.20308 4.48675
rclavicle 6.24929e-015 2.38542e-015
rhumerus -41.0126 -18.6941 -84.1673
rradius 31.3933
rwrist 51.3427
rhand -34.9469 -11.8329
rfingers 7.12502
rthumb -8.09353 -41.6579
lclavicle 6.24929e-015 2.38542e-015
lhumerus -37.1871 -1.51655 90.5382
lradius 24.9246
lwrist -36.3405
lhand -25.3856 12.3571
lfingers 7.12502
lthumb 1.13912 42.3338
rfemur 170.456 63.674 -163.86
rtibia 27.6902
rfoot -69.4497 -40.1666
rtoes -30.0681
lfemur -9.3742 -7.33301 -17.1702
ltibia 25.5988
lfoot -22.3914 6.84705
ltoes -11.8841
81
root 12.0547 18.2277 5.80911 -176.88 -7.05026 -177.577
lowerback -5.70058 0.878225 -1.14792
upperback 1.08504 1.21732 0.817164
thorax 4.27806 0.563456 1.60233
lowerneck -13.0673 3.42585 -4.27957
upperneck 25.0363 1.97464 10.1992
head 9.89669 1.20015 4.4957
rclavicle 1.4797e-014 7.95139e-016
rhumerus -40.97 -18.4769 -84.2666
rradius 31.3691
rwrist 51.109
rhand -34.89 -11.779
rfingers 7.12502
rthumb -8.03859 -41.6062
lclavicle 1.4797e-014 7.95139e-016
lhumerus -37.2021 -1.52129 90.5525
lradius 24.947
lwrist -36.3341
lhand -25.3742 12.1687
lfingers 7.12502
lthumb 1.1502 42.1454
rfemur 170.427 63.6357 -163.928
rtibia 27.689
rfoot -69.4195 -40.2065
rtoes -30.1735
lfemur -9.38701 -7.20745 -17.2034
ltibia 25.6168
lfoot -22.3863 6.72725
ltoes -11.9213
82
root 12.0436 18.2259 5.79938 -176.859 -7.02521 -177.543
lowerback -5.76146 0.956122 -1.07733
upperback 1.08948 1.31577 0.828738
thorax 4.31487 0.613397 1.58508
lowerneck -13.063 3.3695 -4.29371
upperneck 25.0388 1.91554 10.1424
head 9.90271 1.16611 4.47147
rclavicle 7.28049e-015 -4.17448e-015
rhumerus -41.0298 -18.6367 -84.1405
rradius 31.4081
rwrist 51.1487
rhand -34.8486 -11.7849
rfingers 7.12502
rthumb -7.99866 -41.6136
lclavicle 7.28049e-015 -4.17448e-015
lhumerus -37.1827 -1.66748 90.6718
lradius 24.9739
lwrist -36.2329
lhand -25.2576 12.4126
lfingers 7.12502
lthumb 1.26279 42.3887
rfemur 170.435 63.7924 -163.914
rtibia 27.6848
rfoot -69.6391 -40.1903
rtoes -29.8856
lfemur -9.37767 -7.09963 -17.2009
ltibia 25.6335
lfoot -22.4107 6.65618
ltoes -11.8747
83
root 12.0343 18.2241 5.79046 -176.855 -7.02918 -177.574
lowerback -5.75207 0.891489 -1.09299
upperback 1.07415 1.23419 0.760888
thorax 4.29758 0.573935 1.51573
lowerneck -13.0479 3.43142 -4.14092
upperneck 25.0758 1.95424 10.1335
head 9.91301 1.19318 4.44674
rclavicle -1.9307e-014 -6.55989e-015
rhumerus -41.0511 -18.4853 -84.3493
rradius 31.4155
rwrist 51.0878
rhand -34.8008 -11.7944
rfingers 7.12502
rthumb -7.95255 -41.6248
lclavicle -1.9307e-014 -6.55989e-015
lhumerus -37.2485 -1.69197 90.5532
lradius 25.0276
lwrist -35.9035
lhand -25.2976 12.4931
lfingers 7.12502
lthumb 1.22412 42.4693
rfemur 170.349 63.8307 -164.052
rtibia 27.6885
rfoot -69.6456 -40.189
rtoes -29.833
lfemur -9.34663 -7.01838 -17.2595
ltibia 25.6391
lfoot -22.4287 6.55191
ltoes -11.8354
84
root 12.0271 18.2237 5.78169 -176.844 -7.00976 -177.565
lowerback -5.7701 0.909379 -1.11314
upperback 1.0829 1.25783 0.797553
thorax 4.31486 0.584344 1.56766
lowerneck -13.0849 3.39615 -4.26144
upperneck 25.1004 1.9273 10.1616
head 9.92822 1.17377 4.4769
rclavicle 4.09993e-015 -5.76476e-015
rhumerus -41.0662 -18.4816 -84.2634
rradius 31.4458
rwrist 51.0143
rhand -34.8267 -11.739
rfingers 7.12502
rthumb -7.97751 -41.5684
lclavicle 4.09993e-015 -5.76476e-015
lhumerus -37.1775 -1.56601 90.5838
lradius 24.9273
lwrist -36.0156
lhand -25.3379 12.4531
lfingers 7.12502
lthumb 1.18519 42.4296
rfemur 170.302 63.7806 -164.106
rtibia 27.6923
rfoot -69.5554 -40.1932
rtoes -29.8365
lfemur -9.33504 -6.89663 -17.2639
ltibia 25.6406
lfoot -22.435 6.45853
ltoes -11.8704
85
root 12.0157 18.2237 5.77414 -176.773 -7.00289 -177.616
lowerback -5.82832 0.901977 -1.15707
upperback 1.08671 1.25262 0.781499
thorax 4.35136 0.580558 1.57653
lowerneck -13.1368 3.40514 -4.20712
upperneck 25.0992 1.95072 10.0974
head 9.9382 1.18593 4.44891
rclavicle 1.56419e-014 -9.14409e-015
rhumerus -41.025 -18.6063 -84.1875
rradius 31.388
rwrist 51.2319
rhand -34.8297 -11.6816
rfingers 7.12502
rthumb -7.98044 -41.511
lclavicle 1.56419e-014 -9.14409e-015
lhumerus -37.1484 -1.43659 90.5234
lradius 24.9076
lwrist -36.238
lhand -25.1639 13.0254
lfingers 7.12502
lthumb 1.35324 43.0008
rfemur 170.399 63.8936 -164.106
rtibia 27.6989
rfoot -69.6624 -40.1993
rtoes -29.8335
lfemur -9.37575 -6.93358 -17.3586
ltibia 25.6361
lfoot -22.447 6.48877
ltoes -11.8307
86
root 12.0061 18.2226 5.76605 -176.744 -6.98902 -177.667
lowerback -5.82936 0.905017 -1.16487
upperback 1.07792 1.25987 0.730744
thorax 4.34351 0.584937 1.52897
lowerneck -13.1536 3.40896 -4.13013
upperneck 25.1283 1.94619 10.0466
head 9.95483 1.18489 4.41856
rclavicle -7.11898e-015 -7.95139e-015
rhumerus -41.0161 -18.6762 -84.2212
rradius 31.3655
rwrist 51.2527
rhand -34.852 -11.7064
rfingers 7.12502
rthumb -8.00193 -41.5349
lclavicle -7.11898e-015 -7.95139e-015
lhumerus -37.1872 -1.55588 90.497
lradius 24.9709
lwrist -36.134
lhand -25.0342 13.0214
lfingers 7.12502
lthumb 1.47854 42.996
rfemur 170.386 63.8481 -164.209
rtibia 27.694
rfoot -69.6174 -40.218
rtoes -29.8944
lfemur -9.37336 -6.78606 -17.4358
ltibia 25.6398
lfoot -22.4497 6.35742
ltoes -11.8178
87
root 11.9961 18.2231 5.75441 -176.66 -6.96726 -177.68
lowerback -5.91149 0.939066 -1.10203
upperback 1.03566 1.30673 0.616721
thorax 4.34836 0.61163 1.38127
lowerneck -13.1752 3.41338 -3.91158
upperneck 25.1933 1.88113 10.0412
head 9.99301 1.17047 4.37444
rclavicle 5.61567e-015 8.54774e-015
rhumerus -41.1058 -18.8912 -84.2966
rradius 31.3787
rwrist 51.3381
rhand -34.8295 -11.7306
rfingers 7.12502
rthumb -7.98018 -41.5599
lclavicle 5.61567e-015 8.54774e-015
lhumerus -37.256 -1.90015 90.4522
lradius 25.0303
lwrist -35.8884
lhand -25.0572 13.034
lfingers 7.12502
lthumb 1.45631 43.0088
rfemur 170.485 63.8137 -164.169
rtibia 27.6903
rfoot -69.5673 -40.2772
rtoes -29.8231
lfemur -9.42508 -6.66971 -17.4653
ltibia 25.6469
lfoot -22.4521 6.24286
ltoes -11.7171
